<svg width="154" height="77" viewBox="0 0 154 77" fill="none" xmlns="http://www.w3.org/2000/svg">
<g clip-path="url(#clip0_200_586)">
<path d="M79.2381 0C80.3854 0 81.4358 0.202866 82.4054 0.608599C83.3749 1.01433 84.1991 1.59047 84.902 2.32891C85.6049 3.06734 86.1463 3.95995 86.5341 5.00674C86.93 6.05354 87.1239 7.20582 87.1239 8.47982C87.1239 9.73759 86.93 10.8899 86.5503 11.9285C86.1625 12.9672 85.6211 13.868 84.9262 14.6145C84.2314 15.361 83.3992 15.9453 82.4296 16.3592C81.4681 16.773 80.4016 16.984 79.2462 16.984C78.0908 16.984 77.0243 16.7811 76.0628 16.3673C75.1013 15.9534 74.2691 15.3773 73.5661 14.6307C72.8713 13.8842 72.3218 12.9916 71.9421 11.9448C71.5543 10.898 71.3604 9.74571 71.3604 8.47982C71.3604 7.1977 71.5543 6.03731 71.9502 4.99052C72.3461 3.94372 72.8874 3.05111 73.5904 2.31268C74.2933 1.57424 75.1255 0.998103 76.087 0.600485C77.0485 0.202866 78.0989 0 79.2381 0ZM79.23 14.2493C79.9249 14.2493 80.5713 14.1195 81.1611 13.8517C81.7509 13.5839 82.2519 13.2107 82.672 12.7157C83.0921 12.2207 83.4234 11.6202 83.6577 10.9061C83.892 10.192 84.0052 9.38866 84.0052 8.47982C84.0052 7.57098 83.884 6.75951 83.6496 6.04542C83.4153 5.33133 83.0841 4.73085 82.6639 4.24397C82.2438 3.75709 81.7428 3.38381 81.1611 3.12414C80.5793 2.86447 79.9572 2.74275 79.2785 2.74275C78.5836 2.74275 77.9453 2.87259 77.3636 3.13226C76.7738 3.39193 76.2728 3.7652 75.8446 4.2602C75.4164 4.75519 75.0851 5.35568 74.8427 6.06977C74.6084 6.78385 74.4872 7.58721 74.4872 8.47982C74.4872 9.38055 74.6084 10.192 74.8427 10.9061C75.077 11.6202 75.4083 12.2207 75.8285 12.7157C76.2486 13.2107 76.7495 13.5921 77.3313 13.8517C77.9049 14.1195 78.5352 14.2493 79.23 14.2493Z" fill="#1E1E1E"/>
<path d="M93.014 5.51794C93.8543 4.86066 94.7754 4.52795 95.7692 4.52795C98.5728 4.52795 99.9706 6.0454 99.9706 9.07216V16.7162H97.0215V9.16142C97.0215 8.43111 96.9003 7.90365 96.666 7.58718C96.4317 7.27071 96.0358 7.10842 95.4864 7.10842C94.6946 7.10842 93.8704 7.58718 93.014 8.55282V16.7162H90.0891V4.81197H93.014V5.51794Z" fill="#1E1E1E"/>
<path d="M106.079 16.7244H103.162V0.624878H106.079V16.7244Z" fill="#1E1E1E"/>
<path d="M111.783 3.70033H108.866V0.624878H111.783V3.70033ZM111.783 16.7244H108.866V4.81204H111.783V16.7244Z" fill="#1E1E1E"/>
<path d="M117.649 5.51794C118.49 4.86066 119.411 4.52795 120.404 4.52795C123.208 4.52795 124.606 6.0454 124.606 9.07216V16.7162H121.657V9.16142C121.657 8.43111 121.536 7.90365 121.301 7.58718C121.067 7.27071 120.671 7.10842 120.122 7.10842C119.33 7.10842 118.506 7.58718 117.649 8.55282V16.7162H114.724V4.81197H117.649V5.51794Z" fill="#1E1E1E"/>
<path d="M133.073 16.984C132.209 16.984 131.417 16.846 130.706 16.5701C129.995 16.2942 129.373 15.8885 128.856 15.3529C128.339 14.8255 127.943 14.1682 127.66 13.3973C127.377 12.6264 127.24 11.7419 127.24 10.76C127.24 9.80249 127.377 8.93422 127.652 8.16333C127.927 7.39244 128.306 6.74326 128.799 6.20769C129.292 5.67213 129.882 5.25828 130.569 4.97427C131.255 4.69025 132.015 4.54419 132.855 4.54419C133.72 4.54419 134.495 4.68214 135.19 4.96615C135.885 5.25016 136.475 5.6559 136.96 6.18335C137.453 6.7108 137.824 7.36809 138.091 8.13898C138.357 8.90988 138.487 9.78626 138.487 10.76V11.7013H130.326C130.399 12.172 130.52 12.5777 130.682 12.9266C130.843 13.2756 131.045 13.5596 131.288 13.7949C131.522 14.0302 131.797 14.2006 132.104 14.3142C132.411 14.4278 132.734 14.4846 133.081 14.4846C133.34 14.4846 133.599 14.4441 133.857 14.3548C134.116 14.2656 134.35 14.1438 134.56 13.9734C134.77 13.803 134.94 13.6001 135.069 13.3486C135.198 13.1052 135.271 12.8211 135.279 12.4884H138.366C138.261 13.2106 138.05 13.8517 137.743 14.4116C137.436 14.9715 137.049 15.4341 136.58 15.8155C136.119 16.1968 135.586 16.4809 134.988 16.6837C134.39 16.8785 133.752 16.984 133.073 16.984ZM135.328 9.21823C135.142 8.4798 134.835 7.928 134.406 7.57096C133.978 7.21391 133.461 7.02728 132.855 7.02728C132.273 7.02728 131.764 7.2058 131.32 7.57096C130.884 7.93612 130.569 8.4798 130.383 9.21823H135.328Z" fill="#1E1E1E"/>
<path d="M82.7044 27.8251C82.6721 27.3301 82.5509 26.8919 82.357 26.4943C82.155 26.0967 81.8964 25.764 81.5732 25.4881C81.25 25.2122 80.8703 24.9931 80.434 24.847C79.9977 24.701 79.529 24.6279 79.0362 24.6279C78.3332 24.6279 77.6949 24.7497 77.1374 25.0012C76.5799 25.2528 76.0952 25.6179 75.6992 26.1048C75.3033 26.5917 74.9963 27.1922 74.7782 27.9063C74.5681 28.6204 74.463 29.4399 74.463 30.365C74.463 31.2901 74.5681 32.1097 74.7862 32.8237C75.0044 33.5378 75.3033 34.1383 75.6992 34.6252C76.0952 35.1121 76.5638 35.4854 77.1213 35.745C77.6788 36.0047 78.3009 36.1264 78.9958 36.1264C79.521 36.1264 80.0058 36.0534 80.434 35.9073C80.8703 35.7613 81.25 35.5422 81.5732 35.2419C81.8964 34.9498 82.155 34.5927 82.3489 34.1708C82.5428 33.7488 82.664 33.2619 82.7125 32.702H85.8313C85.7424 33.6839 85.5161 34.5603 85.1445 35.3231C84.7728 36.0858 84.288 36.7269 83.6901 37.2543C83.0922 37.7818 82.3893 38.1794 81.5975 38.4553C80.8056 38.7312 79.9492 38.8692 79.02 38.8692C77.8404 38.8692 76.7738 38.6663 75.8285 38.2687C74.8832 37.8711 74.0752 37.2949 73.4127 36.5646C72.7501 35.8262 72.233 34.9336 71.8775 33.8868C71.5139 32.84 71.3362 31.6715 71.3362 30.3731C71.3362 29.0748 71.5139 27.9063 71.8775 26.8595C72.2411 25.8127 72.7582 24.9201 73.4288 24.1735C74.0995 23.4351 74.9074 22.8589 75.8528 22.4613C76.7981 22.0637 77.8565 21.8608 79.02 21.8608C79.9088 21.8608 80.741 22.0069 81.5247 22.2909C82.3085 22.5749 83.0033 22.9807 83.6174 23.5C84.2234 24.0193 84.7243 24.6442 85.1202 25.3826C85.5161 26.121 85.7505 26.9325 85.8393 27.8251H82.7044Z" fill="#1E1E1E"/>
<path d="M91.7293 27.4194C92.5696 26.7621 93.4907 26.4294 94.4845 26.4294C97.2882 26.4294 98.686 27.9468 98.686 30.9736V38.6176H95.7369V31.0629C95.7369 30.3325 95.6157 29.8051 95.3814 29.4886C95.147 29.1722 94.7511 29.0099 94.2017 29.0099C93.4099 29.0099 92.5858 29.4886 91.7293 30.4543V38.6176H88.8044V22.5262H91.7293V27.4194Z" fill="#1E1E1E"/>
<path d="M104.794 25.5936H101.877V22.5262H104.794V25.5936ZM104.794 38.6176H101.877V26.7134H104.794V38.6176Z" fill="#1E1E1E"/>
<path d="M118.174 38.6176H114.676L111.307 33.3512L110.668 33.9841V38.6257H107.743V22.5262H110.668V30.365L114.191 26.7134H118.021L113.327 31.3307L118.174 38.6176Z" fill="#1E1E1E"/>
<path d="M122.44 25.5936H119.524V22.5262H122.44V25.5936ZM122.44 38.6176H119.524V26.7134H122.44V38.6176Z" fill="#1E1E1E"/>
<path d="M130.48 38.5202C130.116 38.6176 129.777 38.6825 129.462 38.7231C129.155 38.7637 128.864 38.7799 128.589 38.7799C127.902 38.7799 127.353 38.6988 126.941 38.5365C126.537 38.3742 126.222 38.1307 126.012 37.8061C125.802 37.4816 125.664 37.0839 125.6 36.6052C125.535 36.1264 125.503 35.5665 125.503 34.9335V29.1884H124.161V26.7134H125.503V23.9788H128.452V26.7134H130.221V29.1884H128.452V35.0228C128.452 35.2987 128.468 35.5178 128.492 35.6801C128.516 35.8505 128.557 35.9722 128.597 36.0615C128.638 36.1507 128.702 36.2076 128.775 36.24C128.848 36.2725 128.928 36.2806 129.009 36.2806C129.187 36.2806 129.405 36.2644 129.648 36.24C129.898 36.2076 130.173 36.1751 130.472 36.1183V38.5202H130.48Z" fill="#1E1E1E"/>
<path d="M136.596 38.8773C133.308 38.8773 131.563 37.3842 131.361 34.3899H134.35C134.366 35.7207 135.11 36.3861 136.572 36.3861C137.21 36.3861 137.703 36.2644 138.034 36.0291C138.366 35.7938 138.535 35.4935 138.535 35.1284C138.535 34.9661 138.503 34.8281 138.43 34.7145C138.358 34.609 138.22 34.5035 138.018 34.4062C137.816 34.3088 137.534 34.2114 137.17 34.1059C136.806 34.0004 136.33 33.8787 135.748 33.7326C135.037 33.5622 134.423 33.3837 133.914 33.2052C133.405 33.0267 132.977 32.8076 132.645 32.5479C132.314 32.2882 132.064 31.9555 131.902 31.5741C131.74 31.1846 131.668 30.6978 131.668 30.0973C131.668 29.5779 131.773 29.0911 131.991 28.6529C132.209 28.2066 132.516 27.8252 132.912 27.5006C133.308 27.176 133.785 26.9163 134.35 26.7297C134.908 26.5431 135.538 26.4457 136.233 26.4457C139.424 26.4457 141.048 27.7927 141.113 30.4787H138.228C138.156 29.4562 137.542 28.9369 136.37 28.9369C136.12 28.9369 135.885 28.9612 135.659 29.0018C135.441 29.0424 135.247 29.1073 135.093 29.1884C134.932 29.2696 134.811 29.3751 134.722 29.4887C134.633 29.6104 134.584 29.7483 134.584 29.9025C134.584 30.0324 134.609 30.1378 134.657 30.2271C134.706 30.3164 134.819 30.3975 134.988 30.4787C135.166 30.5598 135.425 30.6491 135.772 30.7464C136.12 30.8438 136.588 30.9655 137.186 31.1116C137.913 31.2982 138.543 31.4849 139.077 31.6796C139.61 31.8663 140.054 32.1016 140.41 32.3775C140.765 32.6534 141.024 32.9942 141.202 33.3999C141.371 33.8057 141.46 34.3169 141.46 34.9255C141.46 35.4854 141.347 36.0129 141.113 36.4916C140.879 36.9704 140.555 37.3842 140.135 37.7413C139.715 38.0902 139.206 38.3661 138.6 38.569C138.01 38.78 137.34 38.8773 136.596 38.8773Z" fill="#1E1E1E"/>
<path d="M151.083 38.0009C150.122 38.5852 149.007 38.8773 147.738 38.8773C147.14 38.8773 146.583 38.7881 146.074 38.6177C145.565 38.4473 145.12 38.1957 144.749 37.8711C144.377 37.5465 144.078 37.1651 143.86 36.7188C143.642 36.2725 143.537 35.7775 143.537 35.2338C143.537 32.3531 145.896 30.9168 150.623 30.9168H151.083C151.075 30.5923 151.051 30.3083 151.01 30.0567C150.97 29.8133 150.873 29.6023 150.728 29.4319C150.582 29.2615 150.364 29.1316 150.081 29.0505C149.798 28.9612 149.427 28.9206 148.95 28.9206C147.544 28.9206 146.817 29.5455 146.76 30.7951H143.811C143.981 27.882 145.726 26.4294 149.071 26.4294C149.831 26.4294 150.518 26.4944 151.132 26.6323C151.738 26.7703 152.255 27.0137 152.683 27.3626C153.111 27.7116 153.434 28.1822 153.669 28.7827C153.903 29.3832 154.016 30.1378 154.016 31.0629V38.6177H151.099V38.0009H151.083ZM151.083 33.3188H150.227C147.746 33.3188 146.502 33.9274 146.502 35.1446C146.502 35.5503 146.663 35.8587 146.995 36.0697C147.326 36.2806 147.754 36.3861 148.296 36.3861C148.57 36.3861 148.837 36.3618 149.104 36.305C149.37 36.2482 149.629 36.167 149.871 36.0697C150.114 35.9642 150.34 35.8343 150.55 35.672C150.752 35.5097 150.93 35.3312 151.083 35.1202V33.3188Z" fill="#1E1E1E"/>
<path d="M87.6086 60.5191H84.6434V49.9781L81.1125 60.5191H78.5351L75.0285 49.9781V60.5191H72.0713V44.0544H76.0465L79.8359 55.7882L83.6496 44.0544H87.6086V60.5191Z" fill="#1E1E1E"/>
<path d="M94.1289 47.4951H91.2122V44.4277H94.1289V47.4951ZM94.1289 60.5191H91.2122V48.6068H94.1289V60.5191Z" fill="#1E1E1E"/>
<path d="M102.177 60.4137C101.813 60.511 101.474 60.576 101.158 60.6165C100.843 60.6571 100.561 60.6733 100.286 60.6733C99.591 60.6733 99.0416 60.5922 98.6376 60.4299C98.2336 60.2676 97.9185 60.0242 97.7084 59.6996C97.4983 59.375 97.361 58.9774 97.2963 58.4986C97.2317 58.0198 97.1994 57.4599 97.1994 56.827V51.0818H95.8582V48.6068H97.1994V45.8722H100.148V48.6068H101.918V51.0818H100.148V56.9162C100.148 57.1921 100.165 57.4112 100.189 57.5816C100.213 57.7439 100.254 57.8738 100.294 57.963C100.342 58.0523 100.399 58.1091 100.472 58.1416C100.544 58.174 100.625 58.1821 100.706 58.1821C100.884 58.1821 101.102 58.1659 101.352 58.1416C101.603 58.1091 101.878 58.0766 102.177 58.0198V60.4137Z" fill="#1E1E1E"/>
<path d="M110.507 51.528C110.176 51.4307 109.869 51.3495 109.594 51.2927C109.319 51.2359 109.061 51.2035 108.834 51.2035C108.446 51.2035 108.083 51.3008 107.752 51.5037C107.42 51.7066 107.089 52.023 106.766 52.445V60.511H103.849V48.6068H106.766V49.2884C107.485 48.6473 108.277 48.3228 109.133 48.3228C109.254 48.3228 109.432 48.339 109.675 48.3714C109.917 48.4039 110.192 48.4445 110.507 48.4932V51.528Z" fill="#1E1E1E"/>
<path d="M118.942 59.8943C117.981 60.4786 116.857 60.7707 115.597 60.7707C114.999 60.7707 114.442 60.6814 113.933 60.511C113.424 60.3406 112.979 60.0891 112.607 59.7645C112.236 59.4399 111.937 59.0585 111.719 58.6122C111.501 58.1659 111.396 57.6709 111.396 57.1272C111.396 54.2546 113.755 52.8102 118.481 52.8102H118.95C118.942 52.4856 118.918 52.2016 118.877 51.9501C118.837 51.6985 118.74 51.4956 118.595 51.3252C118.449 51.1548 118.231 51.025 117.956 50.9438C117.682 50.8627 117.302 50.814 116.825 50.814C115.419 50.814 114.692 51.4388 114.635 52.6885H111.686C111.848 49.7753 113.601 48.3147 116.946 48.3147C117.706 48.3147 118.393 48.3796 119.007 48.5176C119.613 48.6555 120.13 48.899 120.558 49.2479C120.986 49.5968 121.309 50.0675 121.544 50.6679C121.778 51.2684 121.891 52.0312 121.891 52.9482V60.5029H118.974V59.8943H118.942ZM118.942 55.2122H118.086C115.605 55.2122 114.361 55.8208 114.361 57.038C114.361 57.4437 114.522 57.752 114.854 57.963C115.185 58.174 115.613 58.2795 116.154 58.2795C116.429 58.2795 116.696 58.2552 116.962 58.1984C117.229 58.1416 117.488 58.0685 117.73 57.963C117.972 57.8575 118.199 57.7277 118.409 57.5654C118.611 57.4031 118.788 57.2246 118.942 57.0136V55.2122Z" fill="#1E1E1E"/>
<path d="M30.089 31.0305C30.0728 30.998 30.0567 30.9575 30.0324 30.925C30.0082 30.8925 29.9839 30.8601 29.9516 30.8276C28.1741 29.0424 26.1945 30.0405 25.3946 30.8195H25.3866C25.1442 31.0548 25.1442 31.4362 25.3704 31.6797H25.3785C25.4431 31.7365 25.5078 31.7851 25.5805 31.8176C25.6532 31.8501 25.734 31.8663 25.8148 31.8663C25.9683 31.8663 26.1218 31.8095 26.2349 31.6959C26.243 31.6797 26.2673 31.6553 26.2915 31.6391C26.6066 31.3632 27.8509 30.43 29.1033 31.6878C29.281 31.8582 29.5396 31.9069 29.7496 31.8257C29.8223 31.7933 29.8951 31.7446 29.9516 31.6878C29.9839 31.6553 30.0082 31.6229 30.0324 31.5904C30.0567 31.5579 30.0728 31.5174 30.089 31.4849C30.1455 31.3388 30.1455 31.1766 30.089 31.0305ZM33.6198 35.9804C33.3936 35.737 33.0138 35.7289 32.7795 35.9561H32.7715C32.7634 35.9642 32.7472 35.9804 32.723 36.0129C32.4079 36.2807 31.1474 37.2139 29.9112 35.9723C29.6769 35.7289 29.2891 35.7289 29.0548 35.9723H29.0467C28.8124 36.2076 28.8124 36.589 29.0467 36.8325H29.0548C29.7819 37.5628 30.5576 37.8306 31.2605 37.8306C32.2544 37.8306 33.135 37.3031 33.6117 36.8406C33.8461 36.6053 33.8541 36.2239 33.6198 35.9804ZM37.3688 30.8276C37.28 30.7302 37.183 30.641 37.0941 30.5761C36.9083 30.4219 36.7225 30.2921 36.5447 30.1866C36.5447 30.1866 36.5447 30.1866 36.5366 30.1866C36.3508 30.0892 36.165 30.008 35.9872 29.9512C34.6621 29.5455 33.4098 30.2434 32.8119 30.8195H32.8038C32.5695 31.0548 32.5614 31.4362 32.7957 31.6797H32.8038C33.03 31.9231 33.4178 31.9312 33.6602 31.6959C33.6683 31.6797 33.6925 31.6553 33.7168 31.6391C34.0238 31.3632 35.2681 30.43 36.5205 31.6878C36.6417 31.8095 36.8032 31.8663 36.9487 31.8663C37.1022 31.8663 37.2476 31.8095 37.3688 31.6878C37.6031 31.4524 37.6031 31.0629 37.3688 30.8276ZM37.3688 30.8276C37.28 30.7302 37.183 30.641 37.0941 30.5761C36.9083 30.4219 36.7225 30.2921 36.5447 30.1866C36.5447 30.1866 36.5447 30.1866 36.5366 30.1866C36.3508 30.0892 36.165 30.008 35.9872 29.9512C34.6621 29.5455 33.4098 30.2434 32.8119 30.8195H32.8038C32.5695 31.0548 32.5614 31.4362 32.7957 31.6797H32.8038C33.03 31.9231 33.4178 31.9312 33.6602 31.6959C33.6683 31.6797 33.6925 31.6553 33.7168 31.6391C34.0238 31.3632 35.2681 30.43 36.5205 31.6878C36.6417 31.8095 36.8032 31.8663 36.9487 31.8663C37.1022 31.8663 37.2476 31.8095 37.3688 31.6878C37.6031 31.4524 37.6031 31.0629 37.3688 30.8276ZM32.7795 35.9561H32.7715C32.7634 35.9642 32.7472 35.9804 32.723 36.0129C32.4079 36.2807 31.1474 37.2139 29.9112 35.9723C29.6769 35.7289 29.2891 35.7289 29.0548 35.9723H29.0467C28.8124 36.2076 28.8124 36.589 29.0467 36.8325H29.0548C29.7819 37.5628 30.5576 37.8306 31.2605 37.8306C32.2544 37.8306 33.135 37.3031 33.6117 36.8406C33.8461 36.6053 33.8541 36.2239 33.6198 35.9804C33.3936 35.737 33.0138 35.7289 32.7795 35.9561ZM29.7496 31.8257C29.8223 31.7933 29.8951 31.7446 29.9516 31.6878C29.9839 31.6553 30.0082 31.6229 30.0324 31.5904C30.0567 31.5579 30.0728 31.5174 30.089 31.4849C30.1455 31.3388 30.1455 31.1766 30.089 31.0305C30.0728 30.998 30.0567 30.9575 30.0324 30.925C30.0082 30.8925 29.9839 30.8601 29.9516 30.8276C28.1741 29.0424 26.1945 30.0405 25.3946 30.8195H25.3866C25.1442 31.0548 25.1442 31.4362 25.3704 31.6797H25.3785C25.4431 31.7365 25.5078 31.7851 25.5805 31.8176C25.6532 31.8501 25.734 31.8663 25.8148 31.8663C25.9683 31.8663 26.1218 31.8095 26.2349 31.6959C26.243 31.6797 26.2673 31.6553 26.2915 31.6391C26.6066 31.3632 27.8509 30.43 29.1033 31.6878C29.281 31.8582 29.5396 31.9069 29.7496 31.8257ZM31.2605 0.900757C14.0022 0.900757 0 14.9553 0 32.2964C0 42.8698 5.20336 52.226 13.1861 57.9144C13.4285 58.0848 13.6709 58.2633 13.9295 58.4256C14.0103 58.4824 14.083 58.5311 14.1638 58.5798C14.2284 58.6203 14.2931 58.6609 14.3577 58.7015C14.4223 58.742 14.4789 58.7826 14.5435 58.8232C14.8102 58.9855 15.0687 59.1559 15.3273 59.3101C15.4 59.3506 15.4727 59.3993 15.5454 59.4399V59.4318C15.5212 58.8313 15.5616 55.6747 18.4461 52.6723C18.543 52.5587 18.6481 52.4613 18.7531 52.3639C19.0682 52.0556 19.4156 51.7553 19.7954 51.4551C19.9166 51.3496 20.0459 51.2522 20.1751 51.1548V51.163C20.2721 52.4938 20.6438 53.9382 21.2982 55.5043C22.8172 59.1397 24.6756 61.7769 26.8409 63.3836H26.849C28.2872 63.5865 29.7577 63.692 31.2605 63.692H31.4141C30.9454 63.6839 30.4687 63.6108 30.0163 63.4648C29.4668 63.2863 28.9336 63.0347 28.4084 62.7263C28.061 62.5154 27.7297 62.28 27.3984 62.0041H27.3903C25.5562 60.5192 23.9322 58.1334 22.6071 54.9525C21.8719 53.1916 21.5244 51.6174 21.5648 50.2379H21.5729C22.494 49.6699 23.5605 49.1181 24.7967 48.5906L30.7838 54.6036H30.7919C31.0505 54.8632 31.4302 54.9282 31.7453 54.7983C31.8504 54.7577 31.9554 54.6928 32.0443 54.6036H32.0524L38.0475 48.5744H38.0556C39.3241 49.1099 40.4149 49.678 41.3683 50.2541C41.4087 51.6255 41.0532 53.1997 40.3179 54.9525C39.2353 57.5573 37.9506 59.6265 36.5205 61.1034C36.3589 61.2819 36.1973 61.4361 36.0357 61.5741C35.7125 61.8743 35.3812 62.1421 35.0419 62.3855C34.3632 62.8724 33.6521 63.2295 32.925 63.4648C32.4887 63.6108 32.0443 63.6839 31.5837 63.6839C33.1512 63.6758 34.6944 63.5459 36.1892 63.3025C36.4558 63.0996 36.7144 62.8886 36.9729 62.6533C37.1022 62.5478 37.2315 62.4261 37.3527 62.2963C38.9767 60.6814 40.4149 58.4093 41.6269 55.5043C42.2732 53.9463 42.6449 52.51 42.7499 51.1873H42.758V51.1954C42.8873 51.2928 43.0166 51.382 43.1378 51.4794C43.267 51.5768 43.3882 51.6742 43.5094 51.7797C47.1292 54.8632 47.3716 58.385 47.3554 59.2046H47.3635V59.1965C47.3958 59.1884 47.412 59.1721 47.4443 59.1559H47.4524C47.6544 59.0423 47.8563 58.9125 48.0503 58.7826C48.2846 58.6366 48.5027 58.4905 48.7209 58.3444C48.729 58.3444 48.729 58.3363 48.737 58.3363C48.7613 58.312 48.7936 58.2957 48.8178 58.2795C48.9633 58.1821 49.1168 58.0766 49.2541 57.9712C57.2773 52.2909 62.5292 42.9103 62.5292 32.2964C62.5292 14.9553 48.527 0.900757 31.2605 0.900757ZM32.8199 23.2566C34.0965 24.7903 36.0438 26.1536 38.9444 26.1536C39.1141 26.1536 39.2837 26.1455 39.4696 26.1373C39.6716 27.1436 41.1663 35.1608 36.9648 39.1533C36.173 39.8998 35.1792 40.5084 33.9349 40.8979C32.2867 41.4173 30.4768 41.4173 28.8285 40.8979C27.5843 40.5084 26.5824 39.8998 25.7906 39.1533C22.0092 35.5828 22.8253 28.7746 23.1889 26.6729C23.2293 26.4132 23.2697 26.2266 23.2858 26.1211H23.2939C23.5444 26.1455 23.7787 26.1536 24.013 26.1536C27.6974 26.1536 29.8466 23.9464 31.0182 21.9826C31.1878 21.6986 31.3333 21.4227 31.4625 21.1549L31.4706 21.1631C31.8019 21.8285 32.2382 22.5588 32.8199 23.2566ZM25.9441 16.984C24.9745 14.72 23.9969 12.4398 23.0273 10.1758C23.2939 9.98918 23.5767 9.81877 23.8595 9.65647C25.0634 8.9505 26.3561 8.43928 27.6974 8.066C32.0443 6.81634 36.4154 7.82256 40.1644 10.2002C39.2272 12.4723 38.2818 14.7606 37.3365 17.0327C37.2557 17.0652 37.1588 17.0976 37.1345 17.1057C37.0537 17.1301 36.9648 17.1706 36.884 17.195C36.7063 17.2518 36.5366 17.3086 36.3589 17.3492H36.3508C36.1811 17.3979 36.0114 17.4384 35.8337 17.479C35.6478 17.5277 35.4782 17.5602 35.2923 17.6007C35.2115 17.617 35.1227 17.6332 35.0257 17.6494C32.012 18.2093 28.8851 17.8198 25.9441 16.984ZM22.3405 48.193H22.3324C22.2274 48.0956 22.1466 47.9982 22.0739 47.9009C22.3567 47.2923 22.7202 46.8216 23.0758 46.4727C23.3101 46.2374 23.5444 46.0507 23.7464 45.9128C23.8433 45.8397 23.9403 45.7829 24.0211 45.7342C24.0696 45.7099 24.11 45.6856 24.1504 45.6693C24.2231 45.6206 24.2796 45.5963 24.3281 45.572C24.3524 45.5638 24.3766 45.5557 24.3928 45.5476C24.6675 45.8154 25.0472 45.9777 25.4593 45.9777C25.8875 45.9777 26.2673 45.8073 26.5501 45.5233C26.5824 45.4908 26.6147 45.4502 26.647 45.4097C26.7116 45.3366 26.7682 45.2474 26.8167 45.1662V45.1581C26.8652 45.0688 26.9056 44.9796 26.9298 44.8822C26.9621 44.7848 26.9864 44.6875 26.9944 44.5901C27.0025 44.582 27.0025 44.582 26.9944 44.5739C27.0025 44.5252 27.0025 44.4684 27.0025 44.4197C27.0025 44.371 27.0025 44.3142 26.9944 44.2655C27.0025 44.2574 26.9944 44.2493 26.9944 44.2493C26.9864 44.1438 26.9621 44.0464 26.9298 43.949C26.9056 43.8516 26.8652 43.7624 26.8167 43.6731V43.665C26.7682 43.5839 26.7116 43.4946 26.647 43.4216C26.6147 43.381 26.5824 43.3404 26.5501 43.308C26.2673 43.024 25.8875 42.8535 25.4593 42.8535C25.2654 42.8535 25.0715 42.8941 24.8937 42.959C24.724 43.024 24.5624 43.1132 24.4332 43.243C24.3604 43.2999 24.3039 43.3729 24.2392 43.4378C24.0615 43.6488 23.9484 43.9166 23.908 44.2087C23.7706 44.2655 23.1323 44.5495 22.4132 45.1581C22.2678 45.2879 22.1223 45.4259 21.9769 45.572C21.678 45.8722 21.379 46.2455 21.1124 46.6837C18.6804 43.2512 17.2583 38.5771 16.5877 35.8425C15.8848 33.0023 15.9171 30.146 16.6766 27.5899C17.428 25.0419 18.7127 23.1268 20.0701 21.7149C20.1832 21.585 20.2963 21.4714 20.4094 21.374C22.5667 19.248 24.8371 18.3473 25.4674 18.1201C27.2691 18.6232 29.0063 18.9315 30.6707 19.0451C30.7192 19.0532 30.7596 19.0532 30.8081 19.0532C30.7838 19.1263 30.7596 19.2074 30.7273 19.2967C30.4445 20.1325 29.8304 21.6094 28.6346 22.8185C28.4246 23.0375 28.1983 23.2404 27.9478 23.4189C27.7863 23.5569 27.6166 23.6705 27.4307 23.7841C27.4307 23.7841 27.4307 23.7841 27.4227 23.7841C27.2449 23.8977 27.0591 24.0032 26.8571 24.1006C25.6774 24.6686 24.1746 24.9201 22.2759 24.555C22.0658 24.5144 21.8557 24.5712 21.7022 24.7011C21.6699 24.7254 21.6376 24.7579 21.6133 24.7903C21.5325 24.8715 21.4679 24.9932 21.4437 25.123C21.3952 25.3908 21.5002 25.6505 21.6941 25.8128C21.7507 25.8533 21.8153 25.8858 21.88 25.9183C21.5972 27.3464 20.1913 35.6396 24.6836 40.054C25.4108 40.7762 26.2915 41.3929 27.3661 41.8636V46.1319C25.4189 46.7567 23.7625 47.4546 22.3405 48.193ZM26.2349 48.0307H26.243C26.8813 47.7873 27.5681 47.5519 28.2872 47.3328L28.7801 47.1787V42.3586H28.7881C29.6284 42.5939 30.501 42.7075 31.3817 42.7075C32.3109 42.7075 33.232 42.5776 34.1127 42.318V47.1787H34.1208L34.6217 47.3328C34.9691 47.4464 35.3085 47.5519 35.6398 47.6655C35.6478 47.6655 35.6478 47.6655 35.6478 47.6655C35.9791 47.7791 36.2942 47.8927 36.6093 48.0064L31.4141 53.2241V53.2322L26.2349 48.0307ZM41.9985 47.0245C41.6673 46.3915 41.2633 45.8884 40.8674 45.4908C40.7138 45.3285 40.5523 45.1906 40.3987 45.0607C40.1725 44.866 39.9463 44.7118 39.7443 44.5901C39.6231 44.5171 39.5019 44.444 39.4049 44.3872C39.4049 44.3872 39.4049 44.3872 39.3968 44.3872C39.2433 44.3061 39.1221 44.2574 39.0575 44.2249C39.0333 44.2168 39.0171 44.2087 39.009 44.2087C38.9605 43.8192 38.7828 43.4865 38.5081 43.243C38.2334 42.9996 37.8779 42.8535 37.49 42.8535C37.0537 42.8535 36.6659 43.024 36.3831 43.308C36.3104 43.381 36.2457 43.454 36.1892 43.5433C36.0195 43.7867 35.9226 44.0951 35.9226 44.4197C35.9226 44.7443 36.0195 45.0445 36.1892 45.2879C36.2457 45.3772 36.3104 45.4502 36.3831 45.5233C36.6659 45.7992 37.0537 45.9777 37.49 45.9777C37.9021 45.9777 38.2738 45.8235 38.5485 45.5557C38.5566 45.5557 38.5566 45.5557 38.5566 45.5557C38.7182 45.6206 39.211 45.8641 39.7443 46.3753C39.8008 46.424 39.8655 46.4889 39.922 46.5538C40.2856 46.9271 40.6492 47.4221 40.9239 48.0632C40.9482 48.12 40.9724 48.1768 40.9886 48.2417C40.9562 48.2823 40.9158 48.3228 40.8754 48.3634C40.6896 48.2579 40.4957 48.1605 40.3018 48.0632C39.922 47.8684 39.518 47.6736 39.0898 47.4789C39.0898 47.4789 39.0898 47.4789 39.0817 47.4789C38.6616 47.2923 38.2172 47.1056 37.7567 46.919C37.0618 46.6512 36.3265 46.3834 35.5347 46.1319H35.5266V41.7986H35.5347C36.577 41.3199 37.4416 40.7032 38.1526 39.981C42.4995 35.5828 41.1744 27.4925 40.8754 25.9588H40.8835C40.8997 25.9588 40.9239 25.9507 40.9401 25.9507C41.0694 25.9264 41.1825 25.8696 41.2714 25.7884C41.4572 25.618 41.5461 25.3746 41.4976 25.123C41.4733 24.9932 41.4168 24.8796 41.336 24.7903C41.3117 24.7579 41.2794 24.7254 41.2471 24.7011C41.0936 24.5712 40.8835 24.5144 40.6735 24.555C37.6516 25.1311 35.6317 24.1411 34.3147 22.8185C33.1108 21.6175 32.4887 20.1325 32.2059 19.2967C32.1816 19.2318 32.1655 19.1587 32.1493 19.1019H32.2624C33.3855 19.0938 34.4682 18.9964 35.5105 18.8017L36.4558 18.6069C36.6255 18.5664 36.7871 18.5258 36.9487 18.4771L36.9891 18.469C37.2072 18.4203 37.4173 18.3473 37.6112 18.2824L37.9102 18.185C37.9506 18.2012 37.991 18.2093 38.0314 18.2337C38.1202 18.2661 38.2253 18.3067 38.3465 18.3554C38.5242 18.4284 38.7424 18.5258 38.9848 18.6394C39.1383 18.7124 39.308 18.8017 39.4857 18.8991C39.8412 19.0857 40.2452 19.3129 40.6654 19.5969C40.8754 19.7268 41.0855 19.8728 41.3037 20.0432C41.845 20.4327 42.4106 20.9034 42.9762 21.4633C44.4305 22.9077 45.8202 24.912 46.6363 27.6386C47.3958 30.2028 47.4281 33.051 46.7333 35.8912C46.3454 37.4735 45.7071 39.6969 44.7699 41.969C44.0346 43.7218 43.1216 45.507 42.0066 47.0164C41.9985 47.0164 41.9985 47.0245 41.9985 47.0245ZM29.9112 35.9723C29.6769 35.7289 29.2891 35.7289 29.0548 35.9723H29.0467C28.8124 36.2076 28.8124 36.589 29.0467 36.8325H29.0548C29.7819 37.5628 30.5576 37.8306 31.2605 37.8306C32.2544 37.8306 33.135 37.3031 33.6117 36.8406C33.8461 36.6053 33.8541 36.2239 33.6198 35.9804C33.3936 35.737 33.0138 35.7289 32.7795 35.9561H32.7715C32.7634 35.9642 32.7472 35.9804 32.723 36.0129C32.4079 36.2807 31.1474 37.2139 29.9112 35.9723ZM32.8038 31.6797C33.03 31.9231 33.4178 31.9312 33.6602 31.6959C33.6683 31.6797 33.6925 31.6553 33.7168 31.6391C34.0238 31.3632 35.2681 30.43 36.5205 31.6878C36.6417 31.8095 36.8032 31.8663 36.9487 31.8663C37.1022 31.8663 37.2476 31.8095 37.3688 31.6878C37.6031 31.4524 37.6031 31.0629 37.3688 30.8276C37.28 30.7302 37.183 30.641 37.0941 30.5761C36.9083 30.4219 36.7225 30.2921 36.5447 30.1866C36.5447 30.1866 36.5447 30.1866 36.5366 30.1866C36.3508 30.0892 36.165 30.008 35.9872 29.9512C34.6621 29.5455 33.4098 30.2434 32.8119 30.8195H32.8038C32.5695 31.0548 32.5614 31.4362 32.7957 31.6797H32.8038ZM29.7496 31.8257C29.8223 31.7933 29.8951 31.7446 29.9516 31.6878C29.9839 31.6553 30.0082 31.6229 30.0324 31.5904C30.0567 31.5579 30.0728 31.5174 30.089 31.4849C30.1455 31.3388 30.1455 31.1766 30.089 31.0305C30.0728 30.998 30.0567 30.9575 30.0324 30.925C30.0082 30.8925 29.9839 30.8601 29.9516 30.8276C28.1741 29.0424 26.1945 30.0405 25.3946 30.8195H25.3866C25.1442 31.0548 25.1442 31.4362 25.3704 31.6797H25.3785C25.4431 31.7365 25.5078 31.7851 25.5805 31.8176C25.6532 31.8501 25.734 31.8663 25.8148 31.8663C25.9683 31.8663 26.1218 31.8095 26.2349 31.6959C26.243 31.6797 26.2673 31.6553 26.2915 31.6391C26.6066 31.3632 27.8509 30.43 29.1033 31.6878C29.281 31.8582 29.5396 31.9069 29.7496 31.8257ZM30.089 31.0305C30.0728 30.998 30.0567 30.9575 30.0324 30.925C30.0082 30.8925 29.9839 30.8601 29.9516 30.8276C28.1741 29.0424 26.1945 30.0405 25.3946 30.8195H25.3866C25.1442 31.0548 25.1442 31.4362 25.3704 31.6797H25.3785C25.4431 31.7365 25.5078 31.7851 25.5805 31.8176C25.6532 31.8501 25.734 31.8663 25.8148 31.8663C25.9683 31.8663 26.1218 31.8095 26.2349 31.6959C26.243 31.6797 26.2673 31.6553 26.2915 31.6391C26.6066 31.3632 27.8509 30.43 29.1033 31.6878C29.281 31.8582 29.5396 31.9069 29.7496 31.8257C29.8223 31.7933 29.8951 31.7446 29.9516 31.6878C29.9839 31.6553 30.0082 31.6229 30.0324 31.5904C30.0567 31.5579 30.0728 31.5174 30.089 31.4849C30.1455 31.3388 30.1455 31.1766 30.089 31.0305ZM33.6198 35.9804C33.3936 35.737 33.0138 35.7289 32.7795 35.9561H32.7715C32.7634 35.9642 32.7472 35.9804 32.723 36.0129C32.4079 36.2807 31.1474 37.2139 29.9112 35.9723C29.6769 35.7289 29.2891 35.7289 29.0548 35.9723H29.0467C28.8124 36.2076 28.8124 36.589 29.0467 36.8325H29.0548C29.7819 37.5628 30.5576 37.8306 31.2605 37.8306C32.2544 37.8306 33.135 37.3031 33.6117 36.8406C33.8461 36.6053 33.8541 36.2239 33.6198 35.9804ZM37.3688 30.8276C37.28 30.7302 37.183 30.641 37.0941 30.5761C36.9083 30.4219 36.7225 30.2921 36.5447 30.1866C36.5447 30.1866 36.5447 30.1866 36.5366 30.1866C36.3508 30.0892 36.165 30.008 35.9872 29.9512C34.6621 29.5455 33.4098 30.2434 32.8119 30.8195H32.8038C32.5695 31.0548 32.5614 31.4362 32.7957 31.6797H32.8038C33.03 31.9231 33.4178 31.9312 33.6602 31.6959C33.6683 31.6797 33.6925 31.6553 33.7168 31.6391C34.0238 31.3632 35.2681 30.43 36.5205 31.6878C36.6417 31.8095 36.8032 31.8663 36.9487 31.8663C37.1022 31.8663 37.2476 31.8095 37.3688 31.6878C37.6031 31.4524 37.6031 31.0629 37.3688 30.8276ZM37.3688 30.8276C37.28 30.7302 37.183 30.641 37.0941 30.5761C36.9083 30.4219 36.7225 30.2921 36.5447 30.1866C36.5447 30.1866 36.5447 30.1866 36.5366 30.1866C36.3508 30.0892 36.165 30.008 35.9872 29.9512C34.6621 29.5455 33.4098 30.2434 32.8119 30.8195H32.8038C32.5695 31.0548 32.5614 31.4362 32.7957 31.6797H32.8038C33.03 31.9231 33.4178 31.9312 33.6602 31.6959C33.6683 31.6797 33.6925 31.6553 33.7168 31.6391C34.0238 31.3632 35.2681 30.43 36.5205 31.6878C36.6417 31.8095 36.8032 31.8663 36.9487 31.8663C37.1022 31.8663 37.2476 31.8095 37.3688 31.6878C37.6031 31.4524 37.6031 31.0629 37.3688 30.8276ZM33.6198 35.9804C33.3936 35.737 33.0138 35.7289 32.7795 35.9561H32.7715C32.7634 35.9642 32.7472 35.9804 32.723 36.0129C32.4079 36.2807 31.1474 37.2139 29.9112 35.9723C29.6769 35.7289 29.2891 35.7289 29.0548 35.9723H29.0467C28.8124 36.2076 28.8124 36.589 29.0467 36.8325H29.0548C29.7819 37.5628 30.5576 37.8306 31.2605 37.8306C32.2544 37.8306 33.135 37.3031 33.6117 36.8406C33.8461 36.6053 33.8541 36.2239 33.6198 35.9804ZM30.089 31.0305C30.0728 30.998 30.0567 30.9575 30.0324 30.925C30.0082 30.8925 29.9839 30.8601 29.9516 30.8276C28.1741 29.0424 26.1945 30.0405 25.3946 30.8195H25.3866C25.1442 31.0548 25.1442 31.4362 25.3704 31.6797H25.3785C25.4431 31.7365 25.5078 31.7851 25.5805 31.8176C25.6532 31.8501 25.734 31.8663 25.8148 31.8663C25.9683 31.8663 26.1218 31.8095 26.2349 31.6959C26.243 31.6797 26.2673 31.6553 26.2915 31.6391C26.6066 31.3632 27.8509 30.43 29.1033 31.6878C29.281 31.8582 29.5396 31.9069 29.7496 31.8257C29.8223 31.7933 29.8951 31.7446 29.9516 31.6878C29.9839 31.6553 30.0082 31.6229 30.0324 31.5904C30.0567 31.5579 30.0728 31.5174 30.089 31.4849C30.1455 31.3388 30.1455 31.1766 30.089 31.0305Z" fill="#F5C358"/>
<path d="M26.8408 63.3836C22.7686 62.7993 18.955 61.4361 15.5453 59.4399C15.513 58.7582 15.5615 54.5386 20.175 51.1548C20.272 52.4856 20.6436 53.9381 21.2981 55.5042C22.8171 59.1396 24.6754 61.7769 26.8408 63.3836Z" fill="white"/>
<path d="M47.3554 59.2045C43.9942 61.2494 40.221 62.6614 36.1892 63.3024C38.3061 61.6957 40.1321 59.0828 41.6269 55.5043C42.2733 53.9462 42.6449 52.5099 42.75 51.1873C47.0969 54.3844 47.3716 58.3282 47.3554 59.2045Z" fill="white"/>
<path d="M39.4696 26.1373C39.2838 26.1454 39.106 26.1535 38.9363 26.1535C34.7187 26.1535 32.521 23.2728 31.4626 21.1549C30.4203 23.2728 28.2145 26.1535 24.005 26.1535C23.7707 26.1535 23.5363 26.1454 23.2859 26.1211C23.0596 27.2166 20.9185 38.4148 28.8205 40.8979C30.4688 41.4172 32.2786 41.4172 33.9269 40.8979C41.7804 38.431 39.712 27.3383 39.4696 26.1373ZM26.2269 31.6959C26.1138 31.8095 25.9603 31.8663 25.8068 31.8663C25.6532 31.8663 25.4916 31.8013 25.3704 31.6796C25.1442 31.4362 25.1442 31.0548 25.3866 30.8195C26.1865 30.0405 28.1741 29.0424 29.9517 30.8276C30.186 31.0629 30.186 31.4524 29.9517 31.6877C29.7174 31.9231 29.3295 31.9231 29.0952 31.6877C27.7297 30.3164 26.3804 31.5498 26.2269 31.6959ZM33.6118 36.8405C33.1351 37.295 32.2544 37.8305 31.2525 37.8305C30.5496 37.8305 29.7739 37.5627 29.0467 36.8324C28.8124 36.589 28.8124 36.2076 29.0467 35.9723C29.281 35.7288 29.6689 35.7288 29.9032 35.9723C31.2525 37.3274 32.618 36.1021 32.7715 35.956C33.0058 35.7288 33.3936 35.7369 33.6199 35.9804C33.8542 36.2238 33.8461 36.6052 33.6118 36.8405ZM37.3689 31.6877C37.2477 31.8095 37.0942 31.8663 36.9406 31.8663C36.7871 31.8663 36.6336 31.8095 36.5124 31.6877C35.1469 30.3164 33.7976 31.5498 33.6522 31.6959C33.4098 31.9312 33.022 31.9231 32.7957 31.6796C32.5614 31.4362 32.5695 31.0548 32.8038 30.8195C33.6118 30.0405 35.5913 29.0424 37.3689 30.8276C37.6032 31.0629 37.6032 31.4524 37.3689 31.6877Z" fill="white"/>
<path d="M30.808 19.0533C30.7838 19.1263 30.7596 19.2075 30.7272 19.2967C30.1374 21.0576 28.0367 25.6667 22.2677 24.555C21.888 24.482 21.5163 24.7336 21.4436 25.1231C21.379 25.4639 21.5729 25.7966 21.8799 25.9183C21.5486 27.5818 19.7065 38.5204 27.3661 41.8636V46.1319C25.4188 46.7567 23.7544 47.4546 22.3324 48.193C22.2273 48.0957 22.1465 47.9983 22.0738 47.9009C22.8172 46.2861 24.1342 45.6532 24.3846 45.5477C24.6593 45.8154 25.0391 45.9777 25.4512 45.9777C26.3076 45.9777 27.0025 45.2799 27.0025 44.4197C27.0025 43.5515 26.3076 42.8536 25.4512 42.8536C24.6674 42.8536 24.0049 43.4379 23.9079 44.2087C23.714 44.2899 22.1708 44.9472 21.1123 46.6918C18.6803 43.2593 17.2583 38.5772 16.5877 35.8425C15.8847 33.0024 15.9171 30.146 16.6766 27.5899C18.6884 20.8061 24.4008 18.5015 25.4592 18.1201C27.261 18.6232 28.9982 18.9316 30.6626 19.0452C30.7111 19.0533 30.7596 19.0533 30.808 19.0533Z" fill="white"/>
<path d="M46.7334 35.8911C46.0385 38.6988 44.5599 43.5595 41.9986 47.0244C40.9402 45.0039 39.1707 44.2736 39.0091 44.2086C38.9202 43.4378 38.2658 42.8535 37.482 42.8535C36.6175 42.8535 35.9227 43.5514 35.9227 44.4196C35.9227 45.2798 36.6175 45.9776 37.482 45.9776C37.8941 45.9776 38.2658 45.8235 38.5405 45.5557C38.5486 45.5557 38.5486 45.5557 38.5486 45.5557C38.8314 45.6693 40.1968 46.3509 40.924 48.0631C40.9483 48.1199 40.9725 48.1767 40.9887 48.2416C40.9563 48.2822 40.9159 48.3228 40.8755 48.3633C39.3889 47.56 37.6275 46.8053 35.5267 46.1318V41.7986C42.9601 38.4148 41.223 27.744 40.8755 25.9588C40.8917 25.9588 40.9159 25.9507 40.9321 25.9507C41.3199 25.8776 41.5704 25.5044 41.4977 25.123C41.425 24.7335 41.0533 24.4819 40.6655 24.5549C34.9046 25.6585 32.7958 21.0575 32.206 19.2966C32.1817 19.2317 32.1656 19.1587 32.1494 19.1019H32.2544C33.3775 19.0938 34.4602 18.9964 35.5025 18.8017L36.4478 18.6069C36.6175 18.5663 36.7791 18.5258 36.9407 18.4771L36.9811 18.4689C37.1912 18.4203 37.4012 18.3472 37.5952 18.2823L37.9022 18.1849C39.0818 18.6069 44.6407 20.9277 46.6364 27.6385C47.3959 30.2027 47.4282 33.051 46.7334 35.8911Z" fill="white"/>
<path d="M36.6093 48.0064L31.414 53.2322L26.2349 48.0307C26.8732 47.7873 27.5599 47.5519 28.279 47.3329L28.78 47.1787V42.3586C29.6203 42.5939 30.4929 42.7075 31.3736 42.7075C32.3028 42.7075 33.2319 42.5777 34.1126 42.318V47.1787L34.6136 47.3329C35.3165 47.5519 35.979 47.771 36.6093 48.0064Z" fill="white"/>
<path d="M41.3684 50.2541C41.4088 51.6255 41.0533 53.1997 40.318 54.9525C38.395 59.5778 35.8338 62.5234 32.917 63.4647C32.4807 63.6108 32.0282 63.6838 31.5677 63.6838C31.5192 63.692 31.4626 63.6919 31.4141 63.6919C30.9374 63.6838 30.4607 63.6108 30.0083 63.4647C27.0915 62.5234 24.5302 59.5778 22.6072 54.9525C21.872 53.1916 21.5245 51.6173 21.5649 50.2378C22.486 49.6698 23.5606 49.118 24.7968 48.5906L30.7839 54.6035C31.1313 54.9525 31.6969 54.9525 32.0444 54.6035L38.0476 48.5743C39.3161 49.1099 40.415 49.6779 41.3684 50.2541Z" fill="white"/>
<path d="M30.0889 31.0305C30.0728 30.9981 30.0566 30.9575 30.0324 30.925C30.0162 30.8926 29.992 30.8601 29.9597 30.8277H29.9516C28.174 29.0424 26.1945 30.0405 25.3946 30.8195C25.1522 31.0549 25.1522 31.4363 25.3784 31.6797C25.4431 31.7365 25.5077 31.7852 25.5804 31.8176C25.6531 31.8501 25.7339 31.8663 25.8147 31.8663C25.9683 31.8663 26.1218 31.8095 26.2349 31.6959C26.243 31.6797 26.2672 31.6635 26.2914 31.6391C26.6066 31.3632 27.8508 30.43 29.1032 31.6878C29.281 31.8582 29.5395 31.9069 29.7496 31.8258C29.8223 31.8014 29.895 31.7608 29.9516 31.6878H29.9597C29.992 31.6553 30.0162 31.6229 30.0324 31.5904C30.0566 31.558 30.0728 31.5174 30.0889 31.4849C30.1536 31.3389 30.1536 31.1766 30.0889 31.0305ZM33.6279 35.9805H33.6198C33.3935 35.737 33.0138 35.7289 32.7795 35.9561C32.7714 35.9642 32.7472 35.9886 32.7229 36.0129C32.4078 36.2807 31.1474 37.2139 29.9112 35.9723C29.6769 35.7289 29.289 35.7289 29.0547 35.9723C28.8204 36.2077 28.8204 36.5891 29.0547 36.8325C29.7819 37.5628 30.5576 37.8306 31.2605 37.8306C32.2543 37.8306 33.135 37.3032 33.6117 36.8406H33.6198C33.8541 36.6053 33.8622 36.2239 33.6279 35.9805ZM37.3769 30.8277H37.3688C37.2799 30.7303 37.1829 30.641 37.0941 30.5761C36.9163 30.4138 36.7305 30.2921 36.5446 30.1866C36.5446 30.1866 36.5446 30.1866 36.5366 30.1866C36.3588 30.0811 36.173 30.0081 35.9871 29.9513C34.6621 29.5455 33.4097 30.2434 32.8118 30.8195C32.5775 31.0549 32.5775 31.4363 32.8037 31.6797C33.03 31.9231 33.4178 31.9312 33.6602 31.6959L33.7167 31.6391C34.0238 31.3632 35.268 30.43 36.5204 31.6878C36.6416 31.8095 36.8032 31.8663 36.9486 31.8663C37.1021 31.8663 37.2476 31.8095 37.3688 31.6878H37.3769C37.6192 31.4525 37.6192 31.063 37.3769 30.8277ZM37.3769 30.8277H37.3688C37.2799 30.7303 37.1829 30.641 37.0941 30.5761C36.9163 30.4138 36.7305 30.2921 36.5446 30.1866C36.5446 30.1866 36.5446 30.1866 36.5366 30.1866C36.3588 30.0811 36.173 30.0081 35.9871 29.9513C34.6621 29.5455 33.4097 30.2434 32.8118 30.8195C32.5775 31.0549 32.5775 31.4363 32.8037 31.6797C33.03 31.9231 33.4178 31.9312 33.6602 31.6959L33.7167 31.6391C34.0238 31.3632 35.268 30.43 36.5204 31.6878C36.6416 31.8095 36.8032 31.8663 36.9486 31.8663C37.1021 31.8663 37.2476 31.8095 37.3688 31.6878H37.3769C37.6192 31.4525 37.6192 31.063 37.3769 30.8277ZM33.6279 35.9805H33.6198C33.3935 35.737 33.0138 35.7289 32.7795 35.9561C32.7714 35.9642 32.7472 35.9886 32.7229 36.0129C32.4078 36.2807 31.1474 37.2139 29.9112 35.9723C29.6769 35.7289 29.289 35.7289 29.0547 35.9723C28.8204 36.2077 28.8204 36.5891 29.0547 36.8325C29.7819 37.5628 30.5576 37.8306 31.2605 37.8306C32.2543 37.8306 33.135 37.3032 33.6117 36.8406H33.6198C33.8541 36.6053 33.8622 36.2239 33.6279 35.9805ZM30.0889 31.0305C30.0728 30.9981 30.0566 30.9575 30.0324 30.925C30.0162 30.8926 29.992 30.8601 29.9597 30.8277H29.9516C28.174 29.0424 26.1945 30.0405 25.3946 30.8195C25.1522 31.0549 25.1522 31.4363 25.3784 31.6797C25.4431 31.7365 25.5077 31.7852 25.5804 31.8176C25.6531 31.8501 25.7339 31.8663 25.8147 31.8663C25.9683 31.8663 26.1218 31.8095 26.2349 31.6959C26.243 31.6797 26.2672 31.6635 26.2914 31.6391C26.6066 31.3632 27.8508 30.43 29.1032 31.6878C29.281 31.8582 29.5395 31.9069 29.7496 31.8258C29.8223 31.8014 29.895 31.7608 29.9516 31.6878H29.9597C29.992 31.6553 30.0162 31.6229 30.0324 31.5904C30.0566 31.558 30.0728 31.5174 30.0889 31.4849C30.1536 31.3389 30.1536 31.1766 30.0889 31.0305ZM30.0889 31.0305C30.0728 30.9981 30.0566 30.9575 30.0324 30.925C30.0162 30.8926 29.992 30.8601 29.9597 30.8277H29.9516C28.174 29.0424 26.1945 30.0405 25.3946 30.8195C25.1522 31.0549 25.1522 31.4363 25.3784 31.6797C25.4431 31.7365 25.5077 31.7852 25.5804 31.8176C25.6531 31.8501 25.7339 31.8663 25.8147 31.8663C25.9683 31.8663 26.1218 31.8095 26.2349 31.6959C26.243 31.6797 26.2672 31.6635 26.2914 31.6391C26.6066 31.3632 27.8508 30.43 29.1032 31.6878C29.281 31.8582 29.5395 31.9069 29.7496 31.8258C29.8223 31.8014 29.895 31.7608 29.9516 31.6878H29.9597C29.992 31.6553 30.0162 31.6229 30.0324 31.5904C30.0566 31.558 30.0728 31.5174 30.0889 31.4849C30.1536 31.3389 30.1536 31.1766 30.0889 31.0305ZM33.6279 35.9805H33.6198C33.3935 35.737 33.0138 35.7289 32.7795 35.9561C32.7714 35.9642 32.7472 35.9886 32.7229 36.0129C32.4078 36.2807 31.1474 37.2139 29.9112 35.9723C29.6769 35.7289 29.289 35.7289 29.0547 35.9723C28.8204 36.2077 28.8204 36.5891 29.0547 36.8325C29.7819 37.5628 30.5576 37.8306 31.2605 37.8306C32.2543 37.8306 33.135 37.3032 33.6117 36.8406H33.6198C33.8541 36.6053 33.8622 36.2239 33.6279 35.9805ZM37.3769 30.8277H37.3688C37.2799 30.7303 37.1829 30.641 37.0941 30.5761C36.9163 30.4138 36.7305 30.2921 36.5446 30.1866C36.5446 30.1866 36.5446 30.1866 36.5366 30.1866C36.3588 30.0811 36.173 30.0081 35.9871 29.9513C34.6621 29.5455 33.4097 30.2434 32.8118 30.8195C32.5775 31.0549 32.5775 31.4363 32.8037 31.6797C33.03 31.9231 33.4178 31.9312 33.6602 31.6959L33.7167 31.6391C34.0238 31.3632 35.268 30.43 36.5204 31.6878C36.6416 31.8095 36.8032 31.8663 36.9486 31.8663C37.1021 31.8663 37.2476 31.8095 37.3688 31.6878H37.3769C37.6192 31.4525 37.6192 31.063 37.3769 30.8277ZM37.3769 30.8277H37.3688C37.2799 30.7303 37.1829 30.641 37.0941 30.5761C36.9163 30.4138 36.7305 30.2921 36.5446 30.1866C36.5446 30.1866 36.5446 30.1866 36.5366 30.1866C36.3588 30.0811 36.173 30.0081 35.9871 29.9513C34.6621 29.5455 33.4097 30.2434 32.8118 30.8195C32.5775 31.0549 32.5775 31.4363 32.8037 31.6797C33.03 31.9231 33.4178 31.9312 33.6602 31.6959L33.7167 31.6391C34.0238 31.3632 35.268 30.43 36.5204 31.6878C36.6416 31.8095 36.8032 31.8663 36.9486 31.8663C37.1021 31.8663 37.2476 31.8095 37.3688 31.6878H37.3769C37.6192 31.4525 37.6192 31.063 37.3769 30.8277ZM33.6279 35.9805H33.6198C33.3935 35.737 33.0138 35.7289 32.7795 35.9561C32.7714 35.9642 32.7472 35.9886 32.7229 36.0129C32.4078 36.2807 31.1474 37.2139 29.9112 35.9723C29.6769 35.7289 29.289 35.7289 29.0547 35.9723C28.8204 36.2077 28.8204 36.5891 29.0547 36.8325C29.7819 37.5628 30.5576 37.8306 31.2605 37.8306C32.2543 37.8306 33.135 37.3032 33.6117 36.8406H33.6198C33.8541 36.6053 33.8622 36.2239 33.6279 35.9805ZM30.0889 31.0305C30.0728 30.9981 30.0566 30.9575 30.0324 30.925C30.0162 30.8926 29.992 30.8601 29.9597 30.8277H29.9516C28.174 29.0424 26.1945 30.0405 25.3946 30.8195C25.1522 31.0549 25.1522 31.4363 25.3784 31.6797C25.4431 31.7365 25.5077 31.7852 25.5804 31.8176C25.6531 31.8501 25.7339 31.8663 25.8147 31.8663C25.9683 31.8663 26.1218 31.8095 26.2349 31.6959C26.243 31.6797 26.2672 31.6635 26.2914 31.6391C26.6066 31.3632 27.8508 30.43 29.1032 31.6878C29.281 31.8582 29.5395 31.9069 29.7496 31.8258C29.8223 31.8014 29.895 31.7608 29.9516 31.6878H29.9597C29.992 31.6553 30.0162 31.6229 30.0324 31.5904C30.0566 31.558 30.0728 31.5174 30.0889 31.4849C30.1536 31.3389 30.1536 31.1766 30.0889 31.0305ZM30.0889 31.0305C30.0728 30.9981 30.0566 30.9575 30.0324 30.925C30.0162 30.8926 29.992 30.8601 29.9597 30.8277H29.9516C28.174 29.0424 26.1945 30.0405 25.3946 30.8195C25.1522 31.0549 25.1522 31.4363 25.3784 31.6797C25.4431 31.7365 25.5077 31.7852 25.5804 31.8176C25.6531 31.8501 25.7339 31.8663 25.8147 31.8663C25.9683 31.8663 26.1218 31.8095 26.2349 31.6959C26.243 31.6797 26.2672 31.6635 26.2914 31.6391C26.6066 31.3632 27.8508 30.43 29.1032 31.6878C29.281 31.8582 29.5395 31.9069 29.7496 31.8258C29.8223 31.8014 29.895 31.7608 29.9516 31.6878H29.9597C29.992 31.6553 30.0162 31.6229 30.0324 31.5904C30.0566 31.558 30.0728 31.5174 30.0889 31.4849C30.1536 31.3389 30.1536 31.1766 30.0889 31.0305ZM33.6279 35.9805H33.6198C33.3935 35.737 33.0138 35.7289 32.7795 35.9561C32.7714 35.9642 32.7472 35.9886 32.7229 36.0129C32.4078 36.2807 31.1474 37.2139 29.9112 35.9723C29.6769 35.7289 29.289 35.7289 29.0547 35.9723C28.8204 36.2077 28.8204 36.5891 29.0547 36.8325C29.7819 37.5628 30.5576 37.8306 31.2605 37.8306C32.2543 37.8306 33.135 37.3032 33.6117 36.8406H33.6198C33.8541 36.6053 33.8622 36.2239 33.6279 35.9805ZM37.3769 30.8277H37.3688C37.2799 30.7303 37.1829 30.641 37.0941 30.5761C36.9163 30.4138 36.7305 30.2921 36.5446 30.1866C36.5446 30.1866 36.5446 30.1866 36.5366 30.1866C36.3588 30.0811 36.173 30.0081 35.9871 29.9513C34.6621 29.5455 33.4097 30.2434 32.8118 30.8195C32.5775 31.0549 32.5775 31.4363 32.8037 31.6797C33.03 31.9231 33.4178 31.9312 33.6602 31.6959L33.7167 31.6391C34.0238 31.3632 35.268 30.43 36.5204 31.6878C36.6416 31.8095 36.8032 31.8663 36.9486 31.8663C37.1021 31.8663 37.2476 31.8095 37.3688 31.6878H37.3769C37.6192 31.4525 37.6192 31.063 37.3769 30.8277ZM37.3769 30.8277H37.3688C37.2799 30.7303 37.1829 30.641 37.0941 30.5761C36.9163 30.4138 36.7305 30.2921 36.5446 30.1866C36.5446 30.1866 36.5446 30.1866 36.5366 30.1866C36.3588 30.0811 36.173 30.0081 35.9871 29.9513C34.6621 29.5455 33.4097 30.2434 32.8118 30.8195C32.5775 31.0549 32.5775 31.4363 32.8037 31.6797C33.03 31.9231 33.4178 31.9312 33.6602 31.6959L33.7167 31.6391C34.0238 31.3632 35.268 30.43 36.5204 31.6878C36.6416 31.8095 36.8032 31.8663 36.9486 31.8663C37.1021 31.8663 37.2476 31.8095 37.3688 31.6878H37.3769C37.6192 31.4525 37.6192 31.063 37.3769 30.8277ZM33.6198 35.9805C33.3935 35.737 33.0138 35.7289 32.7795 35.9561C32.7714 35.9642 32.7472 35.9886 32.7229 36.0129C32.4078 36.2807 31.1474 37.2139 29.9112 35.9723C29.6769 35.7289 29.289 35.7289 29.0547 35.9723C28.8204 36.2077 28.8204 36.5891 29.0547 36.8325C29.7819 37.5628 30.5576 37.8306 31.2605 37.8306C32.2543 37.8306 33.135 37.3032 33.6117 36.8406H33.6198C33.8541 36.6053 33.8622 36.2239 33.6279 35.9805H33.6198ZM29.7496 31.8258C29.8223 31.8014 29.895 31.7608 29.9516 31.6878H29.9597C29.992 31.6553 30.0162 31.6229 30.0324 31.5904C30.0566 31.558 30.0728 31.5174 30.0889 31.4849C30.1536 31.3389 30.1536 31.1766 30.0889 31.0305C30.0728 30.9981 30.0566 30.9575 30.0324 30.925C30.0162 30.8926 29.992 30.8601 29.9597 30.8277H29.9516C28.174 29.0424 26.1945 30.0405 25.3946 30.8195C25.1522 31.0549 25.1522 31.4363 25.3784 31.6797C25.4431 31.7365 25.5077 31.7852 25.5804 31.8176C25.6531 31.8501 25.7339 31.8663 25.8147 31.8663C25.9683 31.8663 26.1218 31.8095 26.2349 31.6959C26.243 31.6797 26.2672 31.6635 26.2914 31.6391C26.6066 31.3632 27.8508 30.43 29.1032 31.6878C29.281 31.8582 29.5395 31.9069 29.7496 31.8258ZM42.7337 49.4508C42.7014 49.1506 42.661 48.8665 42.5883 48.5825C45.4889 45.0932 47.1776 40.0216 48.1148 36.232C48.8663 33.1484 48.8339 30.0324 48.0017 27.2329C45.9979 20.4815 40.8027 17.8036 38.8393 17.0165L41.7157 10.0622C41.7318 10.0298 41.7399 9.99733 41.748 9.96487C41.7561 9.93241 41.7561 9.89995 41.7561 9.86749C41.7561 9.7052 41.6753 9.56725 41.5541 9.47799L41.3683 9.35627C36.8194 6.47556 31.7776 5.61541 27.1641 6.9381C25.54 7.39252 24.1099 7.98489 22.8091 8.74767C22.4859 8.92619 22.1627 9.12906 21.8557 9.34004L21.7587 9.39684C21.7183 9.42119 21.7102 9.4293 21.6779 9.45364C21.5567 9.53479 21.4759 9.68085 21.4759 9.84315C21.4759 9.90806 21.4921 9.97298 21.5163 10.0298L21.589 10.2083C22.5586 12.4642 23.5282 14.7201 24.4977 16.9678C22.5263 17.7549 17.331 20.4328 15.3272 27.1842C14.495 29.9837 14.4627 33.0998 15.2222 36.1833C16.1271 39.8512 17.7431 44.72 20.4659 48.193C20.3447 48.5825 20.2559 48.9964 20.2074 49.4265C15.408 52.5831 14.3657 56.827 14.1799 58.5798C14.2365 58.6204 14.3011 58.6609 14.3577 58.7015C14.4223 58.7421 14.4789 58.7826 14.5435 58.8232C14.8101 58.9855 15.0687 59.1559 15.3272 59.3101C15.408 59.3507 15.4727 59.3994 15.5454 59.4318V59.4399H15.5535C15.5292 58.8557 15.5535 55.691 18.446 52.6723C18.543 52.5668 18.648 52.4613 18.753 52.364C19.0681 52.0556 19.4156 51.7554 19.7953 51.4551C19.9165 51.3577 20.0458 51.2604 20.1751 51.163V51.1549H20.1832C20.2801 52.4857 20.6599 53.9382 21.3062 55.5043C22.8252 59.1316 24.6836 61.7688 26.8409 63.3837H26.8489C27.7216 64.0247 28.6265 64.5035 29.588 64.8118C29.992 64.9417 30.4121 65.0309 30.8323 65.0796C30.3879 66.946 27.9316 75.58 20.9911 75.58C12.6609 75.58 9.82492 69.0315 9.7926 65.9885C10.8268 65.6882 11.5782 64.7307 11.5782 63.5865C11.5782 62.207 10.4632 61.0872 9.08966 61.0872C7.72418 61.0872 6.59302 62.207 6.59302 63.5865C6.59302 64.7226 7.35251 65.6801 8.37864 65.9885C8.41096 70.4515 12.4185 77.0001 20.9911 77.0001C29.6445 77.0001 32.0846 66.0534 32.2947 65.0553C32.6583 65.0066 33.0057 64.9254 33.3531 64.8118C34.355 64.4873 35.3004 63.9841 36.2053 63.3025C36.4638 63.1078 36.7224 62.8887 36.9729 62.6533C37.1021 62.5479 37.2314 62.4261 37.3526 62.2963C38.9847 60.6896 40.4148 58.4175 41.6349 55.5043C42.2813 53.9463 42.661 52.5181 42.758 51.1954V51.1873C42.8872 51.2847 43.0165 51.3821 43.1377 51.4795C43.267 51.5768 43.3882 51.6742 43.5094 51.7797C47.1372 54.847 47.3796 58.3607 47.3634 59.1965V59.2046C47.3957 59.1884 47.4119 59.1722 47.4442 59.1559H47.4523C47.6543 59.0423 47.8563 58.9125 48.0502 58.7827C48.2845 58.6366 48.5188 58.4905 48.737 58.3445V58.3363C48.4946 56.5592 47.3957 52.51 42.7337 49.4508ZM7.80498 63.5865C7.80498 62.8806 8.37864 62.3044 9.08966 62.3044C9.7926 62.3044 10.3663 62.8806 10.3663 63.5865C10.3663 64.3006 9.7926 64.8768 9.08966 64.8768C8.37864 64.8768 7.80498 64.3006 7.80498 63.5865ZM38.9847 18.6394C39.1382 18.7125 39.3079 18.8017 39.4857 18.8991C39.8412 19.0857 40.2452 19.313 40.6653 19.597C40.8754 19.7268 41.0855 19.8729 41.3036 20.0433C41.845 20.4328 42.4105 20.9034 42.9761 21.4633C44.4305 22.8996 45.8364 24.904 46.6443 27.6386C47.4038 30.2028 47.4361 33.0511 46.7413 35.8912C46.3535 37.4736 45.7152 39.697 44.7698 41.9691C44.0427 43.7218 43.1377 45.5071 42.0066 47.0164C41.6753 46.3835 41.2713 45.8803 40.8673 45.4908C40.7138 45.3286 40.5522 45.1825 40.3987 45.0608C40.1725 44.866 39.9462 44.7118 39.7442 44.5901C39.623 44.509 39.5099 44.4441 39.4049 44.3872C39.4049 44.3872 39.4049 44.3872 39.3968 44.3872C39.2352 44.298 39.114 44.2412 39.0574 44.225C39.0413 44.2168 39.0332 44.2087 39.0251 44.2087C38.9766 43.8192 38.7827 43.4784 38.508 43.2431C38.2333 42.9996 37.8778 42.8536 37.49 42.8536C37.0537 42.8536 36.6658 43.024 36.383 43.308C36.3103 43.381 36.2457 43.4541 36.1891 43.5433C36.0275 43.7868 35.9306 44.0951 35.9306 44.4197C35.9306 44.7443 36.0275 45.0445 36.1891 45.288C36.2457 45.3772 36.3103 45.4503 36.383 45.5233C36.6658 45.7992 37.0537 45.9777 37.49 45.9777C37.902 45.9777 38.2737 45.8235 38.5484 45.5558C38.5565 45.5558 38.5565 45.5558 38.5565 45.5558C38.7181 45.6207 39.211 45.8641 39.7442 46.3753C39.8008 46.4159 39.8654 46.4808 39.922 46.5539C40.2936 46.919 40.6572 47.4221 40.9319 48.0632C40.9562 48.12 40.9804 48.1768 40.9966 48.2417C40.9643 48.2823 40.9239 48.3229 40.8835 48.3634H40.8754C40.6896 48.2579 40.4956 48.1606 40.3017 48.0632C39.922 47.8603 39.518 47.6737 39.0898 47.4789C39.0898 47.4789 39.0898 47.4789 39.0817 47.4789C38.6615 47.2923 38.2172 47.1057 37.7566 46.919C37.0617 46.6512 36.3265 46.3835 35.5347 46.1319V41.7987C36.577 41.3199 37.4415 40.7032 38.1525 39.981C42.5075 35.591 41.1824 27.4925 40.8835 25.9589C40.8996 25.9589 40.9239 25.9507 40.94 25.9507C41.0693 25.9264 41.1824 25.8696 41.2713 25.7885C41.4571 25.6262 41.5541 25.3746 41.5056 25.123C41.4814 24.9932 41.4167 24.8715 41.3359 24.7903C41.3117 24.7579 41.2794 24.7254 41.2471 24.7011C41.0935 24.5713 40.8835 24.5145 40.6734 24.555C37.6516 25.1312 35.6316 24.1412 34.3146 22.8185C33.1188 21.6094 32.4967 20.1325 32.2139 19.2967C32.1897 19.2318 32.1735 19.1588 32.1654 19.102H32.2624C33.3855 19.0939 34.4681 18.9965 35.5104 18.8017L36.4558 18.607C36.6254 18.5664 36.787 18.5258 36.9486 18.4771L36.989 18.469C37.2072 18.4203 37.4173 18.3473 37.6112 18.2824L37.9101 18.185C37.9505 18.2012 37.9909 18.2094 38.0313 18.2337C38.1202 18.2662 38.2252 18.3067 38.3464 18.3554C38.5242 18.4285 38.7423 18.5258 38.9847 18.6394ZM26.243 48.0307C26.8813 47.7873 27.568 47.552 28.2871 47.3329L28.78 47.1787H28.7881V42.3586C29.6284 42.5939 30.501 42.7075 31.3817 42.7075C32.3109 42.7075 33.2319 42.5777 34.1126 42.318H34.1207V47.1787L34.6217 47.3329C34.9691 47.4384 35.3084 47.552 35.6397 47.6656C35.6478 47.6656 35.6478 47.6656 35.6478 47.6656C35.9791 47.7711 36.3023 47.8847 36.6093 48.0064H36.6174L31.4221 53.2322H31.414V53.2241L26.243 48.0307ZM23.1888 26.6729C23.2373 26.4133 23.2696 26.2266 23.2939 26.1212C23.5443 26.1455 23.7786 26.1536 24.013 26.1536C27.6973 26.1536 29.8465 23.9464 31.0181 21.9827C31.1878 21.6987 31.3332 21.4228 31.4706 21.1631C31.8018 21.8285 32.2462 22.5588 32.8199 23.2567C34.0965 24.7903 36.0437 26.1536 38.9443 26.1536C39.114 26.1536 39.2837 26.1455 39.4695 26.1374H39.4776C39.6796 27.1517 41.1824 35.169 36.9648 39.1533C36.173 39.8998 35.1792 40.5084 33.9349 40.8979C32.2866 41.4173 30.4768 41.4173 28.8285 40.8979C27.5842 40.5084 26.5823 39.8998 25.7905 39.1533C22.0253 35.5747 22.8414 28.7746 23.1888 26.6729ZM23.0272 10.1758C23.2939 9.98921 23.5766 9.8188 23.8594 9.65651C25.0633 8.95053 26.3561 8.43931 27.6973 8.06604C32.0442 6.81638 36.4154 7.8226 40.1644 10.2002C39.2271 12.4723 38.2818 14.7606 37.3365 17.0327C37.2557 17.0652 37.1587 17.0977 37.1345 17.1058C37.0537 17.1301 36.9648 17.1707 36.884 17.195C36.7062 17.2518 36.5366 17.3086 36.3588 17.3492H36.3507C36.1811 17.3979 36.0114 17.4385 35.8336 17.479C35.6478 17.5277 35.4781 17.5602 35.2923 17.6008C35.2115 17.617 35.1226 17.6332 35.0257 17.6494C32.0119 18.2094 28.885 17.8199 25.944 16.984C24.9744 14.7201 23.9968 12.4398 23.0272 10.1758ZM21.1204 46.6918C21.1204 46.6918 21.1204 46.6837 21.1123 46.6837C18.6884 43.2512 17.2664 38.5772 16.6038 35.8425C15.8928 33.0024 15.9251 30.146 16.6846 27.5899C17.4441 25.0419 18.7126 23.135 20.07 21.7149C20.1832 21.5932 20.2963 21.4796 20.4094 21.3741C22.5667 19.248 24.8371 18.3473 25.4673 18.1201C27.2691 18.6232 29.0062 18.9316 30.6707 19.0452C30.7191 19.0533 30.7595 19.0533 30.808 19.0533H30.8161C30.7919 19.1263 30.7676 19.2075 30.7434 19.2967C30.4606 20.1325 29.8385 21.6175 28.6346 22.8185C28.4245 23.0376 28.1983 23.2404 27.9478 23.419C27.7862 23.5569 27.6165 23.6705 27.4307 23.7841C27.4307 23.7841 27.4307 23.7841 27.4226 23.7841C27.2449 23.8977 27.059 24.0032 26.857 24.1006C25.6774 24.6686 24.1745 24.9202 22.2758 24.555C22.0657 24.5145 21.8557 24.5713 21.7021 24.7011C21.6698 24.7254 21.6375 24.7579 21.6133 24.7903C21.5325 24.8796 21.484 24.9932 21.4598 25.123C21.4032 25.3827 21.5082 25.6424 21.6941 25.8128C21.7506 25.8534 21.8153 25.8858 21.8799 25.9183H21.888C21.6052 27.3465 20.1993 35.6315 24.6836 40.054C25.4108 40.7762 26.2914 41.3929 27.366 41.8636H27.3741V46.1319H27.366C25.4188 46.7567 23.7625 47.4546 22.3404 48.193C22.2354 48.0956 22.1546 47.9983 22.0819 47.9009C22.3647 47.3004 22.7202 46.8298 23.0757 46.4727C23.31 46.2374 23.5443 46.0508 23.7463 45.9128C23.8514 45.8398 23.9402 45.783 24.021 45.7343C24.0695 45.7099 24.1099 45.6856 24.1503 45.6694C24.223 45.6288 24.2796 45.5963 24.3281 45.572C24.3523 45.5639 24.3765 45.5558 24.3927 45.5476C24.6674 45.8154 25.0472 45.9777 25.4592 45.9777C25.8875 45.9777 26.2672 45.8073 26.55 45.5233C26.5904 45.4908 26.6227 45.4503 26.647 45.4097C26.7197 45.3367 26.7762 45.2555 26.8166 45.1663V45.1581C26.8732 45.0689 26.9136 44.9796 26.9297 44.8822C26.9701 44.793 26.9944 44.6875 26.9944 44.5901C27.0025 44.582 27.0025 44.582 26.9944 44.5739C27.0105 44.5252 27.0105 44.4684 27.0105 44.4197C27.0105 44.3629 27.0105 44.3142 26.9944 44.2655C27.0025 44.2574 26.9944 44.2493 26.9944 44.2493C26.9944 44.1438 26.9701 44.0383 26.9297 43.9491C26.9136 43.8517 26.8732 43.7624 26.8166 43.6732V43.665C26.7762 43.5758 26.7197 43.4946 26.647 43.4216C26.6227 43.381 26.5904 43.3405 26.55 43.308C26.2672 43.024 25.8875 42.8536 25.4592 42.8536C25.2653 42.8536 25.0714 42.8941 24.8936 42.9591C24.724 43.024 24.5705 43.1214 24.4331 43.2431C24.3604 43.2999 24.3038 43.3729 24.2392 43.4378C24.0695 43.6569 23.9483 43.9166 23.916 44.2087H23.9079C23.7706 44.2655 23.1323 44.5495 22.4132 45.1581C22.2677 45.288 22.1223 45.4259 21.9769 45.572C21.686 45.8803 21.387 46.2536 21.1204 46.6918ZM36.5204 61.1034C36.3588 61.282 36.1972 61.4361 36.0356 61.5741C35.7124 61.8824 35.3812 62.1502 35.0418 62.3856C34.3631 62.8724 33.6521 63.2295 32.9249 63.4648C32.4886 63.6109 32.0442 63.6839 31.5837 63.6839H31.5756C31.5271 63.692 31.4706 63.692 31.4221 63.692H31.414C30.9454 63.6839 30.4687 63.6109 30.0162 63.4648C29.4668 63.2863 28.9335 63.0347 28.4083 62.7264C28.069 62.5154 27.7296 62.272 27.3984 62.0042H27.3903C25.5562 60.5111 23.9322 58.1254 22.6152 54.9525C21.8799 53.1917 21.5325 51.6174 21.5729 50.2379C22.494 49.6699 23.5605 49.1181 24.7967 48.5906H24.8048L30.7838 54.6036H30.7919C31.0504 54.8633 31.4302 54.9282 31.7453 54.7984C31.8503 54.7578 31.9553 54.6929 32.0442 54.6036H32.0523L38.0556 48.5744C39.3241 49.11 40.4148 49.678 41.3683 50.2541H41.3763C41.4167 51.6255 41.0612 53.1998 40.326 54.9525C39.2433 57.5573 37.9586 59.6347 36.5204 61.1034ZM33.6602 31.6959L33.7167 31.6391C34.0238 31.3632 35.268 30.43 36.5204 31.6878C36.6416 31.8095 36.8032 31.8663 36.9486 31.8663C37.1021 31.8663 37.2476 31.8095 37.3688 31.6878H37.3769C37.6192 31.4525 37.6192 31.063 37.3769 30.8277H37.3688C37.2799 30.7303 37.1829 30.641 37.0941 30.5761C36.9163 30.4138 36.7305 30.2921 36.5446 30.1866C36.5446 30.1866 36.5446 30.1866 36.5366 30.1866C36.3588 30.0811 36.173 30.0081 35.9871 29.9513C34.6621 29.5455 33.4097 30.2434 32.8118 30.8195C32.5775 31.0549 32.5775 31.4363 32.8037 31.6797C33.03 31.9231 33.4178 31.9312 33.6602 31.6959ZM29.0547 35.9723C28.8204 36.2077 28.8204 36.5891 29.0547 36.8325C29.7819 37.5628 30.5576 37.8306 31.2605 37.8306C32.2543 37.8306 33.135 37.3032 33.6117 36.8406H33.6198C33.8541 36.6053 33.8622 36.2239 33.6279 35.9805H33.6198C33.3935 35.737 33.0138 35.7289 32.7795 35.9561C32.7714 35.9642 32.7472 35.9886 32.7229 36.0129C32.4078 36.2807 31.1474 37.2139 29.9112 35.9723C29.6769 35.7289 29.289 35.7289 29.0547 35.9723ZM29.7496 31.8258C29.8223 31.8014 29.895 31.7608 29.9516 31.6878H29.9597C29.992 31.6553 30.0162 31.6229 30.0324 31.5904C30.0566 31.558 30.0728 31.5174 30.0889 31.4849C30.1536 31.3389 30.1536 31.1766 30.0889 31.0305C30.0728 30.9981 30.0566 30.9575 30.0324 30.925C30.0162 30.8926 29.992 30.8601 29.9597 30.8277H29.9516C28.174 29.0424 26.1945 30.0405 25.3946 30.8195C25.1522 31.0549 25.1522 31.4363 25.3784 31.6797C25.4431 31.7365 25.5077 31.7852 25.5804 31.8176C25.6531 31.8501 25.7339 31.8663 25.8147 31.8663C25.9683 31.8663 26.1218 31.8095 26.2349 31.6959C26.243 31.6797 26.2672 31.6635 26.2914 31.6391C26.6066 31.3632 27.8508 30.43 29.1032 31.6878C29.281 31.8582 29.5395 31.9069 29.7496 31.8258ZM30.0889 31.0305C30.0728 30.9981 30.0566 30.9575 30.0324 30.925C30.0162 30.8926 29.992 30.8601 29.9597 30.8277H29.9516C28.174 29.0424 26.1945 30.0405 25.3946 30.8195C25.1522 31.0549 25.1522 31.4363 25.3784 31.6797C25.4431 31.7365 25.5077 31.7852 25.5804 31.8176C25.6531 31.8501 25.7339 31.8663 25.8147 31.8663C25.9683 31.8663 26.1218 31.8095 26.2349 31.6959C26.243 31.6797 26.2672 31.6635 26.2914 31.6391C26.6066 31.3632 27.8508 30.43 29.1032 31.6878C29.281 31.8582 29.5395 31.9069 29.7496 31.8258C29.8223 31.8014 29.895 31.7608 29.9516 31.6878H29.9597C29.992 31.6553 30.0162 31.6229 30.0324 31.5904C30.0566 31.558 30.0728 31.5174 30.0889 31.4849C30.1536 31.3389 30.1536 31.1766 30.0889 31.0305ZM33.6279 35.9805H33.6198C33.3935 35.737 33.0138 35.7289 32.7795 35.9561C32.7714 35.9642 32.7472 35.9886 32.7229 36.0129C32.4078 36.2807 31.1474 37.2139 29.9112 35.9723C29.6769 35.7289 29.289 35.7289 29.0547 35.9723C28.8204 36.2077 28.8204 36.5891 29.0547 36.8325C29.7819 37.5628 30.5576 37.8306 31.2605 37.8306C32.2543 37.8306 33.135 37.3032 33.6117 36.8406H33.6198C33.8541 36.6053 33.8622 36.2239 33.6279 35.9805ZM37.3769 30.8277H37.3688C37.2799 30.7303 37.1829 30.641 37.0941 30.5761C36.9163 30.4138 36.7305 30.2921 36.5446 30.1866C36.5446 30.1866 36.5446 30.1866 36.5366 30.1866C36.3588 30.0811 36.173 30.0081 35.9871 29.9513C34.6621 29.5455 33.4097 30.2434 32.8118 30.8195C32.5775 31.0549 32.5775 31.4363 32.8037 31.6797C33.03 31.9231 33.4178 31.9312 33.6602 31.6959L33.7167 31.6391C34.0238 31.3632 35.268 30.43 36.5204 31.6878C36.6416 31.8095 36.8032 31.8663 36.9486 31.8663C37.1021 31.8663 37.2476 31.8095 37.3688 31.6878H37.3769C37.6192 31.4525 37.6192 31.063 37.3769 30.8277ZM37.3769 30.8277H37.3688C37.2799 30.7303 37.1829 30.641 37.0941 30.5761C36.9163 30.4138 36.7305 30.2921 36.5446 30.1866C36.5446 30.1866 36.5446 30.1866 36.5366 30.1866C36.3588 30.0811 36.173 30.0081 35.9871 29.9513C34.6621 29.5455 33.4097 30.2434 32.8118 30.8195C32.5775 31.0549 32.5775 31.4363 32.8037 31.6797C33.03 31.9231 33.4178 31.9312 33.6602 31.6959L33.7167 31.6391C34.0238 31.3632 35.268 30.43 36.5204 31.6878C36.6416 31.8095 36.8032 31.8663 36.9486 31.8663C37.1021 31.8663 37.2476 31.8095 37.3688 31.6878H37.3769C37.6192 31.4525 37.6192 31.063 37.3769 30.8277ZM33.6279 35.9805H33.6198C33.3935 35.737 33.0138 35.7289 32.7795 35.9561C32.7714 35.9642 32.7472 35.9886 32.7229 36.0129C32.4078 36.2807 31.1474 37.2139 29.9112 35.9723C29.6769 35.7289 29.289 35.7289 29.0547 35.9723C28.8204 36.2077 28.8204 36.5891 29.0547 36.8325C29.7819 37.5628 30.5576 37.8306 31.2605 37.8306C32.2543 37.8306 33.135 37.3032 33.6117 36.8406H33.6198C33.8541 36.6053 33.8622 36.2239 33.6279 35.9805ZM30.0889 31.0305C30.0728 30.9981 30.0566 30.9575 30.0324 30.925C30.0162 30.8926 29.992 30.8601 29.9597 30.8277H29.9516C28.174 29.0424 26.1945 30.0405 25.3946 30.8195C25.1522 31.0549 25.1522 31.4363 25.3784 31.6797C25.4431 31.7365 25.5077 31.7852 25.5804 31.8176C25.6531 31.8501 25.7339 31.8663 25.8147 31.8663C25.9683 31.8663 26.1218 31.8095 26.2349 31.6959C26.243 31.6797 26.2672 31.6635 26.2914 31.6391C26.6066 31.3632 27.8508 30.43 29.1032 31.6878C29.281 31.8582 29.5395 31.9069 29.7496 31.8258C29.8223 31.8014 29.895 31.7608 29.9516 31.6878H29.9597C29.992 31.6553 30.0162 31.6229 30.0324 31.5904C30.0566 31.558 30.0728 31.5174 30.0889 31.4849C30.1536 31.3389 30.1536 31.1766 30.0889 31.0305ZM30.0889 31.0305C30.0728 30.9981 30.0566 30.9575 30.0324 30.925C30.0162 30.8926 29.992 30.8601 29.9597 30.8277H29.9516C28.174 29.0424 26.1945 30.0405 25.3946 30.8195C25.1522 31.0549 25.1522 31.4363 25.3784 31.6797C25.4431 31.7365 25.5077 31.7852 25.5804 31.8176C25.6531 31.8501 25.7339 31.8663 25.8147 31.8663C25.9683 31.8663 26.1218 31.8095 26.2349 31.6959C26.243 31.6797 26.2672 31.6635 26.2914 31.6391C26.6066 31.3632 27.8508 30.43 29.1032 31.6878C29.281 31.8582 29.5395 31.9069 29.7496 31.8258C29.8223 31.8014 29.895 31.7608 29.9516 31.6878H29.9597C29.992 31.6553 30.0162 31.6229 30.0324 31.5904C30.0566 31.558 30.0728 31.5174 30.0889 31.4849C30.1536 31.3389 30.1536 31.1766 30.0889 31.0305ZM33.6279 35.9805H33.6198C33.3935 35.737 33.0138 35.7289 32.7795 35.9561C32.7714 35.9642 32.7472 35.9886 32.7229 36.0129C32.4078 36.2807 31.1474 37.2139 29.9112 35.9723C29.6769 35.7289 29.289 35.7289 29.0547 35.9723C28.8204 36.2077 28.8204 36.5891 29.0547 36.8325C29.7819 37.5628 30.5576 37.8306 31.2605 37.8306C32.2543 37.8306 33.135 37.3032 33.6117 36.8406H33.6198C33.8541 36.6053 33.8622 36.2239 33.6279 35.9805ZM37.3769 30.8277H37.3688C37.2799 30.7303 37.1829 30.641 37.0941 30.5761C36.9163 30.4138 36.7305 30.2921 36.5446 30.1866C36.5446 30.1866 36.5446 30.1866 36.5366 30.1866C36.3588 30.0811 36.173 30.0081 35.9871 29.9513C34.6621 29.5455 33.4097 30.2434 32.8118 30.8195C32.5775 31.0549 32.5775 31.4363 32.8037 31.6797C33.03 31.9231 33.4178 31.9312 33.6602 31.6959L33.7167 31.6391C34.0238 31.3632 35.268 30.43 36.5204 31.6878C36.6416 31.8095 36.8032 31.8663 36.9486 31.8663C37.1021 31.8663 37.2476 31.8095 37.3688 31.6878H37.3769C37.6192 31.4525 37.6192 31.063 37.3769 30.8277ZM37.3769 30.8277H37.3688C37.2799 30.7303 37.1829 30.641 37.0941 30.5761C36.9163 30.4138 36.7305 30.2921 36.5446 30.1866C36.5446 30.1866 36.5446 30.1866 36.5366 30.1866C36.3588 30.0811 36.173 30.0081 35.9871 29.9513C34.6621 29.5455 33.4097 30.2434 32.8118 30.8195C32.5775 31.0549 32.5775 31.4363 32.8037 31.6797C33.03 31.9231 33.4178 31.9312 33.6602 31.6959L33.7167 31.6391C34.0238 31.3632 35.268 30.43 36.5204 31.6878C36.6416 31.8095 36.8032 31.8663 36.9486 31.8663C37.1021 31.8663 37.2476 31.8095 37.3688 31.6878H37.3769C37.6192 31.4525 37.6192 31.063 37.3769 30.8277ZM33.6279 35.9805H33.6198C33.3935 35.737 33.0138 35.7289 32.7795 35.9561C32.7714 35.9642 32.7472 35.9886 32.7229 36.0129C32.4078 36.2807 31.1474 37.2139 29.9112 35.9723C29.6769 35.7289 29.289 35.7289 29.0547 35.9723C28.8204 36.2077 28.8204 36.5891 29.0547 36.8325C29.7819 37.5628 30.5576 37.8306 31.2605 37.8306C32.2543 37.8306 33.135 37.3032 33.6117 36.8406H33.6198C33.8541 36.6053 33.8622 36.2239 33.6279 35.9805ZM30.0889 31.0305C30.0728 30.9981 30.0566 30.9575 30.0324 30.925C30.0162 30.8926 29.992 30.8601 29.9597 30.8277H29.9516C28.174 29.0424 26.1945 30.0405 25.3946 30.8195C25.1522 31.0549 25.1522 31.4363 25.3784 31.6797C25.4431 31.7365 25.5077 31.7852 25.5804 31.8176C25.6531 31.8501 25.7339 31.8663 25.8147 31.8663C25.9683 31.8663 26.1218 31.8095 26.2349 31.6959C26.243 31.6797 26.2672 31.6635 26.2914 31.6391C26.6066 31.3632 27.8508 30.43 29.1032 31.6878C29.281 31.8582 29.5395 31.9069 29.7496 31.8258C29.8223 31.8014 29.895 31.7608 29.9516 31.6878H29.9597C29.992 31.6553 30.0162 31.6229 30.0324 31.5904C30.0566 31.558 30.0728 31.5174 30.0889 31.4849C30.1536 31.3389 30.1536 31.1766 30.0889 31.0305Z" fill="black"/>
<path d="M40.1645 10.2001C39.2192 12.4722 38.2819 14.7605 37.3366 17.0327C37.2558 17.0651 37.1588 17.0976 37.1346 17.1057C37.0538 17.13 36.9649 17.1706 36.8841 17.1949C36.7064 17.2517 36.5367 17.3086 36.3589 17.3491H36.3508C36.1812 17.3978 36.0034 17.4384 35.8337 17.479C35.6479 17.5276 35.4782 17.5601 35.2924 17.6007C35.2116 17.6169 35.1227 17.6331 35.0258 17.6494C32.012 18.2093 28.8852 17.8198 25.9441 16.984C24.9746 14.72 23.9969 12.4398 23.0273 10.1758C23.294 9.98913 23.5768 9.81872 23.8596 9.65643C25.0634 8.95045 26.3562 8.43923 27.6974 8.06595C32.0443 6.8163 36.4155 7.82251 40.1645 10.2001Z" fill="white"/>
<path d="M27.6974 8.06595C26.3562 8.43923 25.0634 8.95045 23.8596 9.65643C23.5768 9.81872 23.294 9.98913 23.0273 10.1758C23.9969 12.4398 24.9746 14.72 25.9441 16.984C28.8852 17.8198 32.012 18.2093 35.0258 17.6494C35.1227 17.6331 35.2116 17.6169 35.2924 17.6007C35.4782 17.5601 35.6479 17.5276 35.8337 17.479C36.0034 17.4384 36.1812 17.3978 36.3508 17.3491H36.3589C36.5367 17.3086 36.7064 17.2517 36.8841 17.1949C36.9649 17.1706 37.0538 17.13 37.1346 17.1057C37.1588 17.0976 37.2558 17.0651 37.3366 17.0327C38.2819 14.7605 39.2192 12.4722 40.1645 10.2001C36.4155 7.82251 32.0443 6.8163 27.6974 8.06595ZM33.7734 13.7706H32.311V15.2393C32.311 15.6369 31.9878 15.9615 31.6 15.9615C31.204 15.9615 30.8809 15.6369 30.8809 15.2393V13.7706H29.4184C29.0144 13.7706 28.6993 13.4541 28.6993 13.0565C28.6993 12.6589 29.0144 12.3343 29.4184 12.3343H30.8809V10.8655C30.8809 10.4679 31.204 10.1433 31.6 10.1433C31.9878 10.1433 32.311 10.4679 32.311 10.8655V12.3343H33.7734C34.1693 12.3343 34.4925 12.6589 34.4925 13.0565C34.4925 13.4541 34.1693 13.7706 33.7734 13.7706Z" fill="#21AC4B"/>
</g>
<defs>
<clipPath id="clip0_200_586">
<rect width="154" height="77" fill="white"/>
</clipPath>
</defs>
</svg>
